<svg width="48" height="48" xmlns="http://www.w3.org/2000/svg" xmlns:xlink="http://www.w3.org/1999/xlink" xml:space="preserve" overflow="hidden"><defs><clipPath id="clip0"><rect x="0" y="0" width="48" height="48"/></clipPath></defs><g clip-path="url(#clip0)"><path d="M7.0341 30.333C6.14275 30.5548 5.21795 30.6093 4.3067 30.4939 3.4862 30.3792 2.728 30.9513 2.61325 31.7717 2.4987 32.5905 3.0683 33.3477 3.88675 33.4646 4.99375 33.6103 6.117 33.5751 7.2127 33.3606 7.4682 34.5903 7.966 35.7568 8.677 36.792 8.0539 37.3551 7.31745 37.7784 6.51715 38.0332 5.7254 38.2767 5.28095 39.116 5.52445 39.9077 5.768 40.6995 6.60725 41.1439 7.399 40.9004 8.64015 40.5087 9.78025 39.8494 10.7388 38.9691 11.9372 39.9015 13.3423 40.532 14.8355 40.8075 14.6064 41.6258 14.2158 42.3899 13.6866 43.0547 13.1634 43.697 13.2601 44.6419 13.9024 45.165 14.5448 45.6882 15.4896 45.5916 16.0128 44.9492 16.959 43.7597 17.6084 42.3619 17.9072 40.8716 19.1182 40.707 20.2859 40.3095 21.3458 39.701 21.8484 40.2913 22.1777 41.0092 22.2974 41.7752 22.4181 42.5947 23.1803 43.1612 23.9998 43.0405 24.8193 42.9198 25.3859 42.1577 25.2652 41.3382 25.0659 40.0431 24.5156 38.8274 23.674 37.8232 24.8503 36.5405 25.6511 34.9589 25.989 33.2516 26.7346 33.5246 27.3773 34.0217 27.8291 34.6746 28.2785 35.3706 29.2069 35.5704 29.9029 35.1211 30.5989 34.6718 30.7987 33.7434 30.3494 33.0474 30.3486 33.046 30.3477 33.0446 30.3468 33.0433 29.3897 31.6461 27.9637 30.6381 26.3274 30.2018 26.701 28.7829 27.7171 27.6208 29.0735 27.0612 30.9132 27.1906 32.5792 28.1954 33.5518 29.7625 33.9717 30.4767 34.8911 30.7152 35.6053 30.2952 36.3176 29.8764 36.557 28.9602 36.1407 28.2463 35.656 27.4167 35.0276 26.6798 34.285 26.0702 35.3665 25.6533 36.3627 25.0423 37.2245 24.2673 38.4129 24.1308 39.6086 24.4539 40.5665 25.1705 41.2043 25.6992 42.1499 25.611 42.6788 24.9732 43.2076 24.3354 43.1193 23.3897 42.4815 22.8608 41.5933 22.1337 40.5387 21.6382 39.4122 21.4186 39.9538 20.3414 40.2853 19.1708 40.3889 17.9695 41.3146 17.3908 42.3771 17.0676 43.4683 17.033 44.2966 17.0466 44.9791 16.386 44.9927 15.5577 45.0061 14.7335 44.352 14.0527 43.5279 14.0335 43.483 14.0327 43.439 14.0323 43.3946 14.0323 42.2667 14.0517 41.154 14.2962 40.1219 14.7516 39.8134 13.5398 39.2677 12.4013 38.5164 11.4018 39.11 10.7623 39.7952 10.2146 40.5499 9.77665 41.2711 9.3689 41.5252 8.4537 41.1175 7.7325 40.7098 7.01125 39.7945 6.7571 39.0733 7.16485 38.0716 7.7428 37.1604 8.46485 36.3687 9.3079 35.3428 8.57975 34.1819 8.06345 32.9542 7.78925 32.9333 7.6572 32.8947 7.52855 32.8394 7.4068 32.5602 6.65245 32.5732 5.82095 32.876 5.07575 33.1954 4.3114 32.8345 3.4329 32.0702 3.1136 31.3059 2.7943 30.4274 3.15505 30.1081 3.9194 30.1073 3.92145 30.1064 3.92355 30.1056 3.9256 29.6264 5.0806 29.5107 6.3543 29.774 7.5767 28.5347 7.63215 27.3017 7.78425 26.0861 8.0316 26 7.93575 25.9018 7.8514 25.794 7.7808 24.8853 7.17895 24.1399 6.3612 23.6245 5.4007 23.2824 4.6463 22.3934 4.31215 21.639 4.65435 20.8846 4.99655 20.5505 5.8855 20.8927 6.6399 20.8938 6.64235 20.8949 6.6448 20.896 6.6473 21.3178 7.53385 21.8942 8.3381 22.5983 9.0223 21.1814 9.5502 19.8183 10.2122 18.5273 10.9994 18.4304 10.9375 18.3267 10.8871 18.2183 10.8489 17.2647 10.4784 16.4069 9.89765 15.7085 9.14995 15.159 8.53 14.2108 8.47295 13.5908 9.02255 12.9712 9.5718 12.9138 10.5191 13.4624 11.1392 14.1186 11.8669 14.8861 12.4857 15.7363 12.9728 15.1331 13.4684 14.5498 13.9882 13.9986 14.5398 13.7027 14.8353 13.4087 15.1449 13.1241 15.461 12.9552 15.6488 12.7996 15.8474 12.6368 16.0402 12.5107 15.9867 12.3778 15.9509 12.2417 15.9339 11.2737 15.771 10.3613 15.3697 9.587 14.7662 8.94 14.2489 7.9962 14.354 7.4789 15.0009 6.9616 15.6479 7.0667 16.5917 7.7137 17.1091 7.71505 17.1101 7.71645 17.1112 7.71785 17.1124 8.6092 17.8141 9.62675 18.3384 10.7155 18.6572 10.2949 19.3197 9.89595 19.9959 9.54255 20.6971 9.2336 21.3106 8.9621 21.9405 8.70795 22.5772 8.51835 22.524 8.3201 22.5086 8.1246 22.532 7.33775 22.5793 6.5507 22.4428 5.82575 22.1334 5.06095 21.8148 4.1828 22.1767 3.86435 22.9415 3.54585 23.7062 3.90765 24.5844 4.67245 24.9029 5.6463 25.3101 6.6889 25.5279 7.74435 25.5446 7.65605 25.893 7.565 26.2408 7.49275 26.5931 7.2415 27.8256 7.08815 29.0762 7.0341 30.333ZM10.4312 27.1958C10.7986 25.4081 11.4007 23.6768 12.2217 22.0469 13.058 20.3883 14.1114 18.8486 15.354 17.468 15.6021 17.1926 15.8573 16.9237 16.1197 16.6614 17.2225 15.558 18.4449 14.5812 19.7642 13.7487 23.0814 11.654 26.9254 10.5446 30.8487 10.5498 34.4832 10.5466 37.4322 13.4905 37.4354 17.125 37.4385 20.7596 34.4948 23.7085 30.8602 23.7117 30.8563 23.7117 30.8526 23.7117 30.8487 23.7117 26.6091 23.7157 23.1733 27.1518 23.1695 31.3913 23.1695 35.026 20.223 37.9724 16.5884 37.9724 12.9538 37.9724 10.0074 35.026 10.0074 31.3913 10.0071 29.9821 10.1492 28.5765 10.4312 27.1958Z" fill="#087B6E"/><path d="M15.9165 32.0559C15.9165 32.9497 16.6411 33.6743 17.535 33.6743 18.4288 33.6743 19.1534 32.9497 19.1534 32.0559 19.1534 31.1622 18.4289 30.4377 17.5352 30.4375 16.6418 30.4384 15.9176 31.1625 15.9165 32.0559Z" fill="#087B6E"/><path d="M15.0616 28.1089C15.9553 28.1089 16.6799 27.3845 16.68 26.4907 16.68 25.597 15.9556 24.8724 15.0618 24.8723 14.168 24.8722 13.4435 25.5968 13.4434 26.4905 13.4434 26.4905 13.4434 26.4907 13.4434 26.4907 13.4445 27.384 14.1683 28.1078 15.0616 28.1089Z" fill="#087B6E"/><path d="M20.627 26.2539C21.5208 26.2537 22.2453 25.5291 22.2451 24.6353 22.2451 23.7414 21.5203 23.017 20.6265 23.0171 19.7328 23.0172 19.0084 23.7418 19.0084 24.6355 19.0093 25.529 19.7335 26.253 20.627 26.2539Z" fill="#087B6E"/><path d="M19.6269 18.4519C19.6269 17.5581 20.3514 16.8336 21.2451 16.8336 22.1389 16.8336 22.8634 17.5581 22.8634 18.4519 22.8634 19.3457 22.1389 20.0702 21.2451 20.0702 20.3514 20.0702 19.6269 19.3457 19.6269 18.4519Z" fill="#087B6E"/><path d="M25.8105 19.6887C25.8105 18.7949 26.535 18.0704 27.4287 18.0704 28.3225 18.0704 29.047 18.7949 29.047 19.6887 29.047 20.5825 28.3225 21.307 27.4287 21.307 26.535 21.307 25.8105 20.5825 25.8105 19.6887Z" fill="#087B6E"/><path d="M31.1387 16.9785C32.0326 16.9786 32.7572 16.2542 32.7574 15.3604 32.7575 14.4665 32.0331 13.7418 31.1392 13.7417 30.2454 13.7416 29.5207 14.466 29.5205 15.3599 29.5205 15.3599 29.5205 15.36 29.5205 15.3601 29.5217 16.2533 30.2454 16.9773 31.1387 16.9785Z" fill="#087B6E"/></g></svg>